<?xml version="1.0" encoding="UTF-8" standalone="no" ?>
<!DOCTYPE svg PUBLIC "-//W3C//DTD SVG 1.1//EN" "http://www.w3.org/Graphics/SVG/1.1/DTD/svg11.dtd">
<svg xmlns="http://www.w3.org/2000/svg" xmlns:xlink="http://www.w3.org/1999/xlink" version="1.1" width="752.1123435974121" height="155.79887999999997" xml:space="preserve">
<desc>Created with Fabric.js 1.6.0-rc.1</desc>
<defs></defs>
  <g transform="translate(440.85 79.19) scale(2.59 2.59)">
   <text font-family="Youthanasia" font-size="40" font-weight="normal" style="stroke: none; stroke-width: 1; stroke-dasharray: none; stroke-linecap: butt; stroke-linejoin: miter; stroke-miterlimit: 10; fill: #000000; fill-rule: nonzero; opacity: 1;" ><tspan x="-116.82" y="8.98" style="stroke: none; stroke-width: 0; stroke-dasharray: none; stroke-linecap: butt; stroke-linejoin: miter; stroke-miterlimit: 4; fill: #000000; fill-rule: ; opacity: 1;">H</tspan><tspan x="-96.11" y="8.98" style="stroke: none; stroke-width: 0; stroke-dasharray: none; stroke-linecap: butt; stroke-linejoin: miter; stroke-miterlimit: 4; fill: #000000; fill-rule: ; opacity: 1;">E</tspan><tspan x="-76.2" y="8.98" style="stroke: none; stroke-width: 0; stroke-dasharray: none; stroke-linecap: butt; stroke-linejoin: miter; stroke-miterlimit: 4; fill: #000000; fill-rule: ; opacity: 1;">A</tspan><tspan x="-55.49" y="8.98" style="stroke: none; stroke-width: 0; stroke-dasharray: none; stroke-linecap: butt; stroke-linejoin: miter; stroke-miterlimit: 4; fill: #000000; fill-rule: ; opacity: 1;">D</tspan><tspan x="-34.78" y="8.98" style="stroke: none; stroke-width: 0; stroke-dasharray: none; stroke-linecap: butt; stroke-linejoin: miter; stroke-miterlimit: 4; fill: #000000; fill-rule: ; opacity: 1;">L</tspan><tspan x="-14.83" y="8.98" style="stroke: none; stroke-width: 0; stroke-dasharray: none; stroke-linecap: butt; stroke-linejoin: miter; stroke-miterlimit: 4; fill: #000000; fill-rule: ; opacity: 1;">I</tspan><tspan x="-5.92" y="8.98" style="stroke: none; stroke-width: 0; stroke-dasharray: none; stroke-linecap: butt; stroke-linejoin: miter; stroke-miterlimit: 4; fill: #000000; fill-rule: ; opacity: 1;">N</tspan><tspan x="14.79" y="8.98" style="stroke: none; stroke-width: 0; stroke-dasharray: none; stroke-linecap: butt; stroke-linejoin: miter; stroke-miterlimit: 4; fill: #000000; fill-rule: ; opacity: 1;">E</tspan><tspan x="34.7" y="8.98" style="stroke: none; stroke-width: 0; stroke-dasharray: none; stroke-linecap: butt; stroke-linejoin: miter; stroke-miterlimit: 4; fill: #000000; fill-rule: ; opacity: 1;">H</tspan><tspan x="55.41" y="8.98" style="stroke: none; stroke-width: 0; stroke-dasharray: none; stroke-linecap: butt; stroke-linejoin: miter; stroke-miterlimit: 4; fill: #000000; fill-rule: ; opacity: 1;">E</tspan><tspan x="75.32" y="8.98" style="stroke: none; stroke-width: 0; stroke-dasharray: none; stroke-linecap: butt; stroke-linejoin: miter; stroke-miterlimit: 4; fill: #000000; fill-rule: ; opacity: 1;">R</tspan><tspan x="96.11" y="8.98" style="stroke: none; stroke-width: 0; stroke-dasharray: none; stroke-linecap: butt; stroke-linejoin: miter; stroke-miterlimit: 4; fill: #000000; fill-rule: ; opacity: 1;">O</tspan></text>
 </g>
<g style="stroke: none; stroke-width: 1; stroke-dasharray: none; stroke-linecap: butt; stroke-linejoin: miter; stroke-miterlimit: 10; fill: none; fill-rule: nonzero; opacity: 1;" transform="translate(10 24.75) scale(0.23 0.23)" >
  <path d="M 487.747 110.484 h -70.063 v 301.81 c 0 23.812 19.304 43.116 43.116 43.116 l 0 0 c 23.812 0 43.116 -19.304 43.116 -43.116 V 126.653 C 503.916 117.723 496.677 110.484 487.747 110.484 z" style="stroke: none; stroke-width: 1; stroke-dasharray: none; stroke-linecap: butt; stroke-linejoin: miter; stroke-miterlimit: 10; fill: #E0E0E2; fill-rule: nonzero; opacity: 1;" transform=" matrix(1 0 0 1 0 0) " stroke-linecap="round" />
  <path d="M 417.684 412.295 V 56.589 H 8.084 v 355.705 c 0 23.812 19.304 43.116 43.116 43.116 h 409.6 C 436.988 455.41 417.684 436.107 417.684 412.295 z" style="stroke: none; stroke-width: 1; stroke-dasharray: none; stroke-linecap: butt; stroke-linejoin: miter; stroke-miterlimit: 10; fill: #FFFFFF; fill-rule: nonzero; opacity: 1;" transform=" matrix(1 0 0 1 0 0) " stroke-linecap="round" />
  <rect x="51.2" y="153.6" rx="0" ry="0" width="187.95" height="172.46" style="stroke: none; stroke-width: 1; stroke-dasharray: none; stroke-linecap: butt; stroke-linejoin: miter; stroke-miterlimit: 10; fill: #61B59B; fill-rule: nonzero; opacity: 1;" transform=" matrix(1 0 0 1 0 0) "/>
  <circle cx="148.208" cy="207.498" r="21.558" style="stroke: none; stroke-width: 1; stroke-dasharray: none; stroke-linecap: butt; stroke-linejoin: miter; stroke-miterlimit: 10; fill: #FFEBCC; fill-rule: nonzero; opacity: 1;" transform="  matrix(1 0 0 1 0 0) "/>
  <path d="M 191.326 326.063 h -86.232 v -30.181 c 0 -23.812 19.304 -43.116 43.116 -43.116 l 0 0 c 23.812 0 43.116 19.304 43.116 43.116 V 326.063 z" style="stroke: none; stroke-width: 1; stroke-dasharray: none; stroke-linecap: butt; stroke-linejoin: miter; stroke-miterlimit: 10; fill: #FFEBCC; fill-rule: nonzero; opacity: 1;" transform=" matrix(1 0 0 1 0 0) " stroke-linecap="round" />
  <path d="M 417.684 369.179 V 110.484 h 70.063 c 8.929 0 16.168 7.239 16.168 16.168 v 242.526 H 417.684 z" style="stroke: none; stroke-width: 1; stroke-dasharray: none; stroke-linecap: butt; stroke-linejoin: miter; stroke-miterlimit: 10; fill: #C6C5CA; fill-rule: nonzero; opacity: 1;" transform=" matrix(1 0 0 1 0 0) " stroke-linecap="round" />
  <path d="M 417.684 347.621 h 53.895 V 126.653 c 0 -8.929 7.239 -16.168 16.168 -16.168 h -70.063 V 347.621 z" style="stroke: none; stroke-width: 1; stroke-dasharray: none; stroke-linecap: butt; stroke-linejoin: miter; stroke-miterlimit: 10; fill: #FFFFFF; fill-rule: nonzero; opacity: 1;" transform=" matrix(1 0 0 1 0 0) " stroke-linecap="round" />
  <path d="M 423.467 433.853 h -409.6 c 7.456 12.884 21.377 21.558 37.333 21.558 h 409.6 C 444.844 455.41 430.923 446.737 423.467 433.853 z" style="stroke: none; stroke-width: 1; stroke-dasharray: none; stroke-linecap: butt; stroke-linejoin: miter; stroke-miterlimit: 10; fill: #E0E0E2; fill-rule: nonzero; opacity: 1;" transform=" matrix(1 0 0 1 0 0) " stroke-linecap="round" />
  <rect x="417.68" y="110.48" rx="0" ry="0" width="21.56" height="237.14" style="stroke: none; stroke-width: 1; stroke-dasharray: none; stroke-linecap: butt; stroke-linejoin: miter; stroke-miterlimit: 10; fill: #E0E0E2; fill-rule: nonzero; opacity: 1;" transform=" matrix(1 0 0 1 0 0) "/>
  <rect x="266.78" y="145.52" rx="0" ry="0" width="107.79" height="16.17" style="stroke: none; stroke-width: 1; stroke-dasharray: none; stroke-linecap: butt; stroke-linejoin: miter; stroke-miterlimit: 10; fill: rgb(0,0,0); fill-rule: nonzero; opacity: 1;" transform=" matrix(1 0 0 1 0 0) "/>
  <rect x="266.78" y="188.63" rx="0" ry="0" width="107.79" height="16.17" style="stroke: none; stroke-width: 1; stroke-dasharray: none; stroke-linecap: butt; stroke-linejoin: miter; stroke-miterlimit: 10; fill: rgb(0,0,0); fill-rule: nonzero; opacity: 1;" transform=" matrix(1 0 0 1 0 0) "/>
  <rect x="266.78" y="231.75" rx="0" ry="0" width="107.79" height="16.17" style="stroke: none; stroke-width: 1; stroke-dasharray: none; stroke-linecap: butt; stroke-linejoin: miter; stroke-miterlimit: 10; fill: rgb(0,0,0); fill-rule: nonzero; opacity: 1;" transform=" matrix(1 0 0 1 0 0) "/>
  <rect x="266.78" y="274.86" rx="0" ry="0" width="107.79" height="16.17" style="stroke: none; stroke-width: 1; stroke-dasharray: none; stroke-linecap: butt; stroke-linejoin: miter; stroke-miterlimit: 10; fill: rgb(0,0,0); fill-rule: nonzero; opacity: 1;" transform=" matrix(1 0 0 1 0 0) "/>
  <rect x="266.78" y="317.98" rx="0" ry="0" width="107.79" height="16.17" style="stroke: none; stroke-width: 1; stroke-dasharray: none; stroke-linecap: butt; stroke-linejoin: miter; stroke-miterlimit: 10; fill: rgb(0,0,0); fill-rule: nonzero; opacity: 1;" transform=" matrix(1 0 0 1 0 0) "/>
  <rect x="51.2" y="361.1" rx="0" ry="0" width="323.37" height="16.17" style="stroke: none; stroke-width: 1; stroke-dasharray: none; stroke-linecap: butt; stroke-linejoin: miter; stroke-miterlimit: 10; fill: rgb(0,0,0); fill-rule: nonzero; opacity: 1;" transform=" matrix(1 0 0 1 0 0) "/>
  <rect x="116.95" y="91.62" rx="0" ry="0" width="16.17" height="16.17" style="stroke: none; stroke-width: 1; stroke-dasharray: none; stroke-linecap: butt; stroke-linejoin: miter; stroke-miterlimit: 10; fill: rgb(0,0,0); fill-rule: nonzero; opacity: 1;" transform=" matrix(1 0 0 1 0 0) "/>
  <rect x="358.4" y="91.62" rx="0" ry="0" width="16.17" height="16.17" style="stroke: none; stroke-width: 1; stroke-dasharray: none; stroke-linecap: butt; stroke-linejoin: miter; stroke-miterlimit: 10; fill: rgb(0,0,0); fill-rule: nonzero; opacity: 1;" transform=" matrix(1 0 0 1 0 0) "/>
  <rect x="47.97" y="91.62" rx="0" ry="0" width="16.17" height="16.17" style="stroke: none; stroke-width: 1; stroke-dasharray: none; stroke-linecap: butt; stroke-linejoin: miter; stroke-miterlimit: 10; fill: rgb(0,0,0); fill-rule: nonzero; opacity: 1;" transform=" matrix(1 0 0 1 0 0) "/>
  <rect x="82.46" y="91.62" rx="0" ry="0" width="16.17" height="16.17" style="stroke: none; stroke-width: 1; stroke-dasharray: none; stroke-linecap: butt; stroke-linejoin: miter; stroke-miterlimit: 10; fill: rgb(0,0,0); fill-rule: nonzero; opacity: 1;" transform=" matrix(1 0 0 1 0 0) "/>
  <rect x="151.44" y="91.62" rx="0" ry="0" width="16.17" height="16.17" style="stroke: none; stroke-width: 1; stroke-dasharray: none; stroke-linecap: butt; stroke-linejoin: miter; stroke-miterlimit: 10; fill: rgb(0,0,0); fill-rule: nonzero; opacity: 1;" transform=" matrix(1 0 0 1 0 0) "/>
  <rect x="323.91" y="91.62" rx="0" ry="0" width="16.17" height="16.17" style="stroke: none; stroke-width: 1; stroke-dasharray: none; stroke-linecap: butt; stroke-linejoin: miter; stroke-miterlimit: 10; fill: rgb(0,0,0); fill-rule: nonzero; opacity: 1;" transform=" matrix(1 0 0 1 0 0) "/>
  <rect x="289.42" y="91.62" rx="0" ry="0" width="16.17" height="16.17" style="stroke: none; stroke-width: 1; stroke-dasharray: none; stroke-linecap: butt; stroke-linejoin: miter; stroke-miterlimit: 10; fill: rgb(0,0,0); fill-rule: nonzero; opacity: 1;" transform=" matrix(1 0 0 1 0 0) "/>
  <rect x="254.92" y="91.62" rx="0" ry="0" width="16.17" height="16.17" style="stroke: none; stroke-width: 1; stroke-dasharray: none; stroke-linecap: butt; stroke-linejoin: miter; stroke-miterlimit: 10; fill: rgb(0,0,0); fill-rule: nonzero; opacity: 1;" transform=" matrix(1 0 0 1 0 0) "/>
  <rect x="185.94" y="91.62" rx="0" ry="0" width="16.17" height="16.17" style="stroke: none; stroke-width: 1; stroke-dasharray: none; stroke-linecap: butt; stroke-linejoin: miter; stroke-miterlimit: 10; fill: rgb(0,0,0); fill-rule: nonzero; opacity: 1;" transform=" matrix(1 0 0 1 0 0) "/>
  <rect x="220.43" y="91.62" rx="0" ry="0" width="16.17" height="16.17" style="stroke: none; stroke-width: 1; stroke-dasharray: none; stroke-linecap: butt; stroke-linejoin: miter; stroke-miterlimit: 10; fill: rgb(0,0,0); fill-rule: nonzero; opacity: 1;" transform=" matrix(1 0 0 1 0 0) "/>
  <rect x="116.95" y="404.21" rx="0" ry="0" width="16.17" height="16.17" style="stroke: none; stroke-width: 1; stroke-dasharray: none; stroke-linecap: butt; stroke-linejoin: miter; stroke-miterlimit: 10; fill: rgb(0,0,0); fill-rule: nonzero; opacity: 1;" transform=" matrix(1 0 0 1 0 0) "/>
  <rect x="254.92" y="404.21" rx="0" ry="0" width="16.17" height="16.17" style="stroke: none; stroke-width: 1; stroke-dasharray: none; stroke-linecap: butt; stroke-linejoin: miter; stroke-miterlimit: 10; fill: rgb(0,0,0); fill-rule: nonzero; opacity: 1;" transform=" matrix(1 0 0 1 0 0) "/>
  <rect x="289.42" y="404.21" rx="0" ry="0" width="16.17" height="16.17" style="stroke: none; stroke-width: 1; stroke-dasharray: none; stroke-linecap: butt; stroke-linejoin: miter; stroke-miterlimit: 10; fill: rgb(0,0,0); fill-rule: nonzero; opacity: 1;" transform=" matrix(1 0 0 1 0 0) "/>
  <rect x="358.4" y="404.21" rx="0" ry="0" width="16.17" height="16.17" style="stroke: none; stroke-width: 1; stroke-dasharray: none; stroke-linecap: butt; stroke-linejoin: miter; stroke-miterlimit: 10; fill: rgb(0,0,0); fill-rule: nonzero; opacity: 1;" transform=" matrix(1 0 0 1 0 0) "/>
  <rect x="220.43" y="404.21" rx="0" ry="0" width="16.17" height="16.17" style="stroke: none; stroke-width: 1; stroke-dasharray: none; stroke-linecap: butt; stroke-linejoin: miter; stroke-miterlimit: 10; fill: rgb(0,0,0); fill-rule: nonzero; opacity: 1;" transform=" matrix(1 0 0 1 0 0) "/>
  <rect x="323.91" y="404.21" rx="0" ry="0" width="16.17" height="16.17" style="stroke: none; stroke-width: 1; stroke-dasharray: none; stroke-linecap: butt; stroke-linejoin: miter; stroke-miterlimit: 10; fill: rgb(0,0,0); fill-rule: nonzero; opacity: 1;" transform=" matrix(1 0 0 1 0 0) "/>
  <rect x="185.94" y="404.21" rx="0" ry="0" width="16.17" height="16.17" style="stroke: none; stroke-width: 1; stroke-dasharray: none; stroke-linecap: butt; stroke-linejoin: miter; stroke-miterlimit: 10; fill: rgb(0,0,0); fill-rule: nonzero; opacity: 1;" transform=" matrix(1 0 0 1 0 0) "/>
  <rect x="47.97" y="404.21" rx="0" ry="0" width="16.17" height="16.17" style="stroke: none; stroke-width: 1; stroke-dasharray: none; stroke-linecap: butt; stroke-linejoin: miter; stroke-miterlimit: 10; fill: rgb(0,0,0); fill-rule: nonzero; opacity: 1;" transform=" matrix(1 0 0 1 0 0) "/>
  <rect x="82.46" y="404.21" rx="0" ry="0" width="16.17" height="16.17" style="stroke: none; stroke-width: 1; stroke-dasharray: none; stroke-linecap: butt; stroke-linejoin: miter; stroke-miterlimit: 10; fill: rgb(0,0,0); fill-rule: nonzero; opacity: 1;" transform=" matrix(1 0 0 1 0 0) "/>
  <rect x="151.44" y="404.21" rx="0" ry="0" width="16.17" height="16.17" style="stroke: none; stroke-width: 1; stroke-dasharray: none; stroke-linecap: butt; stroke-linejoin: miter; stroke-miterlimit: 10; fill: rgb(0,0,0); fill-rule: nonzero; opacity: 1;" transform=" matrix(1 0 0 1 0 0) "/>
  <path d="M 148.211 237.137 c 16.345 0 29.642 -13.297 29.642 -29.642 s -13.297 -29.642 -29.642 -29.642 s -29.642 13.297 -29.642 29.642 S 131.865 237.137 148.211 237.137 z M 148.211 194.021 c 7.43 0 13.474 6.044 13.474 13.474 c 0 7.43 -6.044 13.474 -13.474 13.474 c -7.43 0 -13.474 -6.044 -13.474 -13.474 C 134.737 200.065 140.781 194.021 148.211 194.021 z" style="stroke: none; stroke-width: 1; stroke-dasharray: none; stroke-linecap: butt; stroke-linejoin: miter; stroke-miterlimit: 10; fill: rgb(0,0,0); fill-rule: nonzero; opacity: 1;" transform=" matrix(1 0 0 1 0 0) " stroke-linecap="round" />
  <path d="M 199.411 334.147 h 47.832 V 145.516 H 43.116 v 188.632 h 53.895 H 199.411 z M 113.179 317.979 v -22.097 c 0 -19.316 15.716 -35.032 35.032 -35.032 s 35.032 15.716 35.032 35.032 v 22.097 H 113.179 z M 59.284 317.979 V 161.684 h 171.789 v 156.295 h -31.663 v -22.097 c 0 -28.231 -22.969 -51.2 -51.2 -51.2 s -51.2 22.969 -51.2 51.2 v 22.097 H 59.284 z" style="stroke: none; stroke-width: 1; stroke-dasharray: none; stroke-linecap: butt; stroke-linejoin: miter; stroke-miterlimit: 10; fill: rgb(0,0,0); fill-rule: nonzero; opacity: 1;" transform=" matrix(1 0 0 1 0 0) " stroke-linecap="round" />
  <path d="M 487.747 102.4 h -61.979 V 48.505 H 0 v 363.789 c 0 28.231 22.969 51.2 51.2 51.2 h 409.6 c 28.231 0 51.2 -22.969 51.2 -51.2 V 126.653 C 512 113.279 501.121 102.4 487.747 102.4 z M 464.88 118.568 c -0.897 2.53 -1.385 5.252 -1.385 8.084 v 212.884 h -37.726 V 118.568 H 464.88 z M 51.2 447.326 c -19.316 0 -35.032 -15.716 -35.032 -35.032 V 64.674 H 409.6 V 102.4 v 253.305 v 56.589 c 0 0.864 0.023 1.725 0.066 2.578 c 0.014 0.282 0.043 0.562 0.061 0.843 c 0.038 0.569 0.073 1.139 0.13 1.704 c 0.033 0.332 0.082 0.66 0.121 0.99 c 0.06 0.508 0.119 1.018 0.194 1.521 c 0.053 0.351 0.12 0.698 0.18 1.048 c 0.082 0.475 0.16 0.952 0.254 1.422 c 0.072 0.359 0.157 0.714 0.237 1.07 c 0.101 0.455 0.202 0.911 0.315 1.36 c 0.091 0.359 0.193 0.714 0.292 1.07 c 0.122 0.44 0.241 0.88 0.374 1.314 c 0.109 0.358 0.229 0.71 0.346 1.065 c 0.14 0.426 0.28 0.853 0.432 1.273 c 0.126 0.352 0.262 0.701 0.397 1.049 c 0.16 0.415 0.319 0.828 0.488 1.237 c 0.143 0.346 0.295 0.689 0.446 1.032 c 0.178 0.403 0.357 0.805 0.544 1.202 c 0.16 0.338 0.327 0.674 0.494 1.009 c 0.195 0.391 0.393 0.78 0.598 1.166 c 0.176 0.331 0.358 0.66 0.541 0.986 c 0.212 0.379 0.429 0.757 0.651 1.131 c 0.191 0.321 0.386 0.64 0.584 0.957 c 0.23 0.369 0.463 0.733 0.703 1.095 c 0.206 0.312 0.415 0.622 0.627 0.929 c 0.247 0.356 0.498 0.708 0.752 1.059 c 0.22 0.301 0.441 0.6 0.667 0.897 c 0.263 0.345 0.532 0.684 0.803 1.022 c 0.233 0.289 0.466 0.578 0.705 0.861 c 0.279 0.332 0.565 0.659 0.853 0.984 c 0.246 0.277 0.49 0.554 0.742 0.827 c 0.1 0.108 0.195 0.222 0.295 0.329 H 51.2 V 447.326 z M 495.832 412.295 c 0 19.316 -15.716 35.032 -35.032 35.032 s -35.032 -15.716 -35.032 -35.032 v -56.589 h 53.895 V 126.653 c 0 -4.458 3.626 -8.084 8.084 -8.084 s 8.084 3.626 8.084 8.084 V 412.295 z" style="stroke: none; stroke-width: 1; stroke-dasharray: none; stroke-linecap: butt; stroke-linejoin: miter; stroke-miterlimit: 10; fill: rgb(0,0,0); fill-rule: nonzero; opacity: 1;" transform=" matrix(1 0 0 1 0 0) " stroke-linecap="round" />
</g>
</svg>